<?xml version="1.0" encoding="UTF-8"?>
<svg id="orange" xmlns="http://www.w3.org/2000/svg" version="1.1" viewBox="0 0 680 680" style="filter: sepia(1) brightness(0.64) contrast(2.25) saturate(3.22) hue-rotate(133.45deg) invert(0.11) grayscale(0);">
  <!-- Generator: Adobe Illustrator 29.3.1, SVG Export Plug-In . SVG Version: 2.1.0 Build 151)  -->
  <defs>
    <style>
      .st0 {
        fill: #a6a6a6;
      }

      .st1 {
        fill: #474747;
      }

      .st1, .st2, .st3, .st4 {
        stroke: #5c5c5c;
        stroke-miterlimit: 10;
        stroke-width: 3px;
      }

      .st2 {
        fill: #b3b3b3;
      }

      .st3 {
        fill: none;
      }

      .st4 {
        fill: #878787;
      }

      .st5 {
        fill: #7a7a7a;
      }
    </style>
  </defs>
  <g id="pulp">
    <g id="inner_x5F_pulp">
      <path class="st0" d="M308.71,424.74c-46.41-17.23-92.4-35.16-139.38-51.69,25.99-25.91,63.21-46.31,107.58-56.16,1.89-.56,3.65-.47,3.48-2.42,11.92,35.52,25.66,70.85,39.15,106.1-4.09.21-7.59,4.7-10.83,4.17Z"></path>
      <path class="st0" d="M309.36,468.22c-25.56,31.23-52.3,62.13-76.87,93.72-38.47-17.47-69.01-42.52-83.5-72.34-.89-1.21-.73-2.46-3.62-2.34,52.84-7.95,105.38-17.2,157.8-26.32.31,2.75,6.99,5.1,6.19,7.28Z"></path>
      <path class="st0" d="M340.48,415.01c-13.83-34.13-28.19-68.22-43.75-101.99,47.42-6.75,96.46-2.52,139.38,12.44-27.85,29.67-55.04,59.64-81.15,90.04-1.76,2.65-13.15,1.21-14.48-.48Z"></path>
      <path class="st0" d="M373.75,423.79c25.71-30.96,52.11-61.78,76.51-93.2,38.49,17.48,69.01,42.51,83.5,72.34.87,1.23.75,2.45,3.6,2.34-51.62,7.78-102.92,16.85-154.22,25.59-3.85.7-10.67-4.85-9.4-7.07Z"></path>
      <path class="st0" d="M374.79,468.03c46.04,17.28,91.87,35.04,138.63,51.45-25.92,25.88-63.38,46.36-107.6,56.15-1.81.6-3.67.49-3.48,2.42-11.56-34.72-25.01-69.22-38.06-103.7-1.04-2.58,7.2-7.17,10.5-6.32Z"></path>
      <path class="st0" d="M161.71,382.56c44.97,19.08,90.8,37.44,135.95,56.14.22,2.04-.17,7.23-2.76,8.16-50.75,9.34-101.47,18.93-151.69,29.42-9.91-31.82-3.9-64.92,18.5-93.72Z"></path>
      <path class="st0" d="M342.27,477.52c14.05,34.09,28.15,68.23,43.75,101.99l-6.21-.66c-45.84,6.76-90.62-1.3-133.17-11.78,28.39-30.22,55.66-61.07,83.49-91.42,3.04-.15,10.74.11,12.14,1.87ZM301.11,535.96c-1.16,12.53,11.31,37.58,35.6,28.33,23.63-9,21.67-49.01-4.84-52.7-19.75-2.75-29.77,13.7-30.76,24.37Z"></path>
      <path class="st0" d="M387.85,445.67c50.73-9.38,101.46-18.97,151.69-29.42,3.53,30.33,4.15,61.59-17.82,89.52,0,0-.68,4.19-.68,4.19-44.15-18.7-88.63-37.1-133.91-54.58-3.94-1.18-1.81-8.81.72-9.72ZM417.55,456.91c7.5,14.37,62.38,9.83,53.88-6.96-9.37-12.86-60.11-10.36-53.88,6.96Z"></path>
    </g>
    <g id="outter_x5F_pulp">
      <path class="st5" d="M239.97,573.47c45.28,15.84,97.17,20.25,147.17,13.14,13.89,25.67,18.58,24.69,4.32,50.84-58.73,7.9-121.3,2-175.08-15.26-3.8-27.95.65-25.69,23.59-48.72Z"></path>
      <path class="st5" d="M440.02,318.35c-37.37-17.53-104.23-23.37-147.17-13.13-13.68-25.31-18.55-24.84-4.32-50.84,58.8-7.95,121.24-2.02,175.11,15.24,3.57,28.13-.27,25.74-23.62,48.73Z"></path>
      <path class="st5" d="M529.7,513.18c23.59-30.46,30.05-65.3,19.53-98.96,37.58-9.19,36.98-12.47,75.62-2.92,11.78,39.52,3.01,81.54-22.7,117.73-41.64,2.55-38.19-.42-72.45-15.85Z"></path>
      <path class="st5" d="M77.84,362.79c41.64-2.54,38.15.44,72.45,15.87-24.93,18.25-34.94,76.36-19.53,98.96-38.26,9.35-36.6,12.53-75.62,2.92-11.74-39.51-3.01-81.55,22.7-117.74Z"></path>
      <path class="st5" d="M521.23,525.41c.25-.71.36-1.45.41-2.19,12.75,4.48,26.52,7.93,39.03,12.79l17.25,20.84c-33.33,32.29-85.38,62.5-142,71.55-29.65-18.02-25.28-17.8-31.56-43.34,44.92-9.67,92.87-32.05,116.87-59.65Z"></path>
      <path class="st5" d="M586.86,397.39c-8.66,2.63-29.49,3.65-39.93,5.24-14.71-29.68-48.7-65.77-91.97-78.86,6.66-8.58,11.79-17.84,19.03-26.25l30.99-11.63c48,22.45,92.94,57.39,106.41,95.51-.99,1.14-22.96,15.52-24.53,15.99Z"></path>
      <path class="st5" d="M158.75,366.42c-.25.71-.36,1.44-.41,2.19-12.62-4.44-26.27-7.91-38.75-12.61l-17.57-21.02c33.39-32.28,85.35-62.51,142.04-71.56,29.65,18.05,25.26,17.8,31.55,43.34-45.09,9.68-92.83,32.08-116.85,59.66Z"></path>
      <path class="st5" d="M93.11,494.43c8.68-2.61,29.49-3.65,39.93-5.23,14.55,29.5,48.95,65.91,91.98,78.86-6.68,8.57-11.77,17.84-19.03,26.25l-30.99,11.63c-47.94-22.47-92.99-57.41-106.41-95.51.99-1.14,22.96-15.53,24.51-16Z"></path>
    </g>
  </g>
  <g id="dm">
    <path class="st4" d="M423.21,178.37l-4.75,6.86-12.09,17.48.07.11,16.84-24.35-.07-.1Z"></path>
    <path class="st4" d="M421.07,175.41l-73.29-101.38h-50.06s0,13.03,0,13.03c-19.28-8.86-46.65-13.03-84.74-13.03h-101.7s0,13.72,0,13.72l5.1.17c24.73.83,24.73,3.03,24.73,17.38v90.91c0,3.57,0,6.39-.41,8.64-1.26,6.9-6.39,8.33-27.29,8.96h-.09s-5,.16-5,.16v13.51s81.46,0,81.46,0c26.96,0,68.68-2.83,101.01-17.75v7.82c2.47-.3,4.96-.59,7.46-.86,6.46-.71,13.05-1.31,19.75-1.79.88-.06,1.74-.13,2.61-.18,10.62-.74,21.53-1.2,32.74-1.38,1.05-.02,2.12-.04,3.19-.05,3.55.04,7.08.11,10.58.21,4.74.13,9.43.31,14.06.54v-6.24s-4.91-.33-4.91-.33c-14.28-.95-21.85-2.79-25.31-6.16-2.93-2.84-3.92-7.57-3.92-18.77,0-6.6.42-14.51,1.31-24.31l2.49-35.35,53.05,76.27,2.48,3.56,12.09-17.48,4.75-6.86-2.14-2.96ZM283.49,190.64c-17.97,13.66-46.13,20.88-81.42,20.88-33.21,0-33.21-3.72-33.21-15.99v-106.13c1.23-.05,2.89-.11,5-.15,4.85-.11,12.06-.19,21.89-.19,28.25,0,50.11,2.1,66.82,6.41,26.67,8.67,42.58,29.08,42.58,54.6,0,9.51-2.88,18.59-8.32,26.63-3.43,5.12-7.91,9.81-13.34,13.94ZM316.23,203.22l-.06.21s-.03.11-.05.16c-3.48,1.9-9.49,3.27-20.36,3.88l-.38.02c9.05-4.64,17.23-10.33,23.94-17.28-1.22,6.67-2.3,10.67-3.09,13.01ZM328.24,112.27c-4.83-7.39-11.48-13.86-19.86-19.31-3.09-2.05-6.44-3.93-10.09-5.63l4.26.34c6.46.53,11.32,1.09,14.97,1.83,4.13,3.07,7.78,6.43,10.91,10.06.09,1.23.11,2.61.11,4.14,0,2.43-.12,5.31-.3,8.57Z"></path>
    <path class="st4" d="M571.68,204.93v19.2s-97.71,0-97.71,0v-19.23s7.81-.43,7.81-.43c4-.22,11.95-.66,16.81-1.84,1.74-.41,3.09-.93,3.71-1.56,1.7-1.72,1.58-9.96,1.49-16.59l-1.01-73.62,27.55-39.83h33.05s0,19.13,0,19.13l-7.72.51c-7.35.5-15.2,1.12-19.91,2.37-.2,2.76-.07,6.32.13,9.78v.23s2.33,81.04,2.33,81.04c.41,9.45.96,14.88,2.71,16.46,3.04,2.74,16.02,3.51,22.99,3.93l7.77.45Z"></path>
    <g id="shadow">
      <g>
        <path class="st1" d="M503.79,184.48c.09,6.63.21,14.87-1.49,16.59-.62.63-1.97,1.15-3.71,1.56.32-3.37.25-7.87.2-11.8l-1.01-73.62,31.94-46.18h.61s-27.55,39.83-27.55,39.83l1.01,73.62Z"></path>
        <polygon class="st1" points="566.68 224.13 566.68 230.48 468.97 230.48 468.97 211.25 473.97 210.97 473.97 224.13 566.68 224.13"></polygon>
      </g>
      <path class="st1" d="M371.27,213.82c-1.45-.1-2.84-.2-4.15-.32-3.5-.1-7.03-.17-10.58-.21-1.07.01-2.14.03-3.19.05-11.21.18-22.12.64-32.74,1.38-.87.05-1.73.12-2.61.18-6.7.48-13.29,1.08-19.75,1.79-2.5.27-4.99.56-7.46.86v-3.73h-.03s-4.97.28-4.97.28v9.8c2.47-.3,4.96-.59,7.46-.86,6.46-.71,13.05-1.31,19.75-1.79.88-.06,1.74-.13,2.61-.18,10.62-.74,21.53-1.2,32.74-1.38,1.05-.02,2.12-.04,3.19-.05,8.37.1,16.59.35,24.64.75v-6.24s-4.91-.33-4.91-.33Z"></path>
      <path class="st1" d="M118.41,207.46l-5.09.16v6.19h.09c20.9-.63,26.03-2.06,27.29-8.96-3.92,1.66-10.66,2.26-22.29,2.61ZM288.49,184.29c-17.97,13.66-46.13,20.88-81.42,20.88-33.21,0-33.21-3.72-33.21-15.99v-99.93c-2.11.04-3.77.1-5,.15v106.13c0,12.27,0,15.99,33.21,15.99,35.29,0,63.45-7.22,81.42-20.88,5.43-4.13,9.91-8.82,13.34-13.94-2.45,2.7-5.24,5.24-8.34,7.59ZM217.98,67.68h-101.7s0,6.35,0,6.35h96.7c38.09,0,65.46,4.17,84.74,13.03v-8.47c-18.93-7.41-44.83-10.91-79.74-10.91ZM288.49,184.29c-17.97,13.66-46.13,20.88-81.42,20.88-33.21,0-33.21-3.72-33.21-15.99v-99.93c-2.11.04-3.77.1-5,.15v106.13c0,12.27,0,15.99,33.21,15.99,35.29,0,63.45-7.22,81.42-20.88,5.43-4.13,9.91-8.82,13.34-13.94-2.45,2.7-5.24,5.24-8.34,7.59ZM427.89,171.59l-1.82-2.53-73.29-101.38h-50.06s0,6.35,0,6.35h45.06s73.29,101.38,73.29,101.38l2.14,2.96.07.1,4.69-6.78-.08-.1ZM288.49,184.29c-17.97,13.66-46.13,20.88-81.42,20.88-33.21,0-33.21-3.72-33.21-15.99v-99.93c-2.11.04-3.77.1-5,.15v106.13c0,12.27,0,15.99,33.21,15.99,35.29,0,63.45-7.22,81.42-20.88,5.43-4.13,9.91-8.82,13.34-13.94-2.45,2.7-5.24,5.24-8.34,7.59Z"></path>
      <polygon class="st1" points="568.38 64.68 568.38 83.81 563.38 84.14 563.38 71.03 530.33 71.03 534.72 64.68 568.38 64.68"></polygon>
    </g>
  </g>
  <g id="straw">
    <path class="st3" d="M669.53,68.24l-9.29,13.27c-1.68,2.4-4.99,2.99-7.4,1.33l-50.66-35.02c-2.42-1.67-3.03-4.99-1.35-7.42l3.89-5.63,5.32-7.69c1.67-2.42,4.99-3.03,7.42-1.35l50.74,35.08c2.43,1.68,3.03,5.02,1.33,7.44Z"></path>
    <path class="st3" d="M609.26,20.05c2.11,1.46,2.63,4.34,1.18,6.45l-5.71,8.27-4.28,6.2c-1.46,2.11-4.34,2.63-6.45,1.18l-1.28-.88c-.78-.53-1.57-1.04-2.36-1.5-.01,0-.02-.01-.03-.02-1.97-1.13-2.89-3.48-2.13-5.62l3.45-9.67,2.62-7.36c.95-2.68,4.09-3.91,6.57-2.52,1.65.92,3.27,1.92,4.85,3.01l3.58,2.47Z"></path>
    <path class="st3" d="M593.45,11.09c1.45.56,2.17,2.19,1.65,3.65l-3.46,9.7-3.83,10.72c-.54,1.5-2.18,2.26-3.69,1.75,0,0-.02,0-.03,0-1.92-.66-3.86-1.13-5.84-1.44-.32-.05-.64-.09-.95-.14-1.52-.2-2.6-1.56-2.48-3.09l.84-10.51.93-11.5c.13-1.64,1.61-2.85,3.24-2.64.22.03.44.06.66.09,4.34.61,8.64,1.73,12.83,3.35.05.02.09.04.14.05Z"></path>
    <path class="st3" d="M570.99,7.1c3.15-.06,5.63,2.67,5.38,5.8l-.71,8.83-.67,8.49c-.21,2.66-2.35,4.71-5.02,4.93-.02,0-.03,0-.05,0-.61.05-1.21.12-1.81.2-2.86.39-5.52-1.5-6.05-4.33l-1.63-8.86-1.5-8.16c-.55-3.01,1.51-5.85,4.54-6.29.45-.07.91-.13,1.36-.19,2.05-.25,4.1-.4,6.17-.44Z"></path>
    <path class="st3" d="M562.63,34.15c.24,1.29-.51,2.54-1.75,3,0,0-.01,0-.02,0-1.81.65-3.57,1.47-5.27,2.43-1.36.78-3.09.28-3.76-1.14l-7.66-16.12-2.02-4.27c-.6-1.27-.12-2.79,1.11-3.48,1.82-1.01,3.68-1.93,5.58-2.74,2.04-.87,4.13-1.63,6.26-2.26,1.52-.45,3.1.52,3.38,2.08l1.94,10.52,2.21,11.97Z"></path>
    <path class="st3" d="M551.95,38.7c.67,1.4.24,3.05-.97,4.02,0,0-.01.01-.02.02-1.12.9-2.19,1.88-3.2,2.93-1.36,1.41-3.62,1.37-4.89-.12l-13.53-15.88c-1.09-1.28-1.04-3.19.12-4.41s2.39-2.4,3.66-3.51c1.53-1.36,3.13-2.62,4.78-3.79s3.97-.52,4.84,1.31l1.45,3.06,7.78,16.37Z"></path>
    <path class="st3" d="M544.05,46.94c.75.88.81,2.15.14,3.1h0s-4.57,6.61-4.57,6.61c-.79,1.14-2.35,1.42-3.49.64l-8.99-6.21-9.05-6.26c-1.14-.79-1.42-2.35-.64-3.49l6.13-8.86c.52-.74,1.04-1.47,1.58-2.17.54-.71,1.09-1.41,1.65-2.07.21-.26.42-.51.65-.75l16.59,19.46Z"></path>
    <polygon class="st3" points="538.19 58.71 531.57 68.29 498.81 68.29 516.03 43.39 527.14 51.08 538.19 58.71"></polygon>
  </g>
  <path id="outter" class="st2" d="M423.03,225.25l74.76-108.12,1.84-2.66,30.56-44.18,1.38-2h-32.76l-70.92,102.56-4.68,6.78-4.75,6.86-12.09,17.48-4.87,7.04-8.3,12c-5.63-.62-11.3-1.14-17.02-1.56-11.89-.88-23.96-1.33-36.18-1.33-18.46,0-36.57,1.03-54.21,3C127.76,238.81,7.18,332.54,7.18,445.51c0,125.58,149.01,227.39,332.82,227.39s332.82-101.81,332.82-227.39c0-105.99-106.15-195.06-249.79-220.26ZM339.85,651.22c-165.69,0-300-91.77-300-204.97s134.31-204.96,300-204.96c12.94,0,25.68.56,38.19,1.65,10.24.88,20.31,2.12,30.2,3.7,132.74,21.15,231.61,102.49,231.61,199.61,0,113.2-134.31,204.97-300,204.97Z"></path>
</svg>