<svg xmlns="http://www.w3.org/2000/svg" viewBox="0 0 800 800"><path d="M800 400a400 400 0 1 1-800 0 400 400 0 0 1 800 0M574 645a300 300 0 0 1-418-418zm71-71L226 155a300 300 0 0 1 418 418Z" style="fill:#646464;fill-rule:evenodd"/><path d="M576 74c-4 1-11 6-16 10a197 197 0 0 0-65 139l-4 26a120 120 0 0 1-22 56l-3-5c-3-8-11-23-16-31l-5-7 6-2c12-4 15-7 14-16 0-6-1-9-6-18l-3-7 2-3c7-11 6-26-3-36-5-6-12-9-20-8h-4l-3-5c-3-6-7-10-9-12l-6-2c-4 0-5 1-9 4l-3 1-2-2c-1-1-3-3-5-3-7-4-13 0-19 12l-2 5h-4c-11-1-22 6-26 17-3 8-3 15 1 23l2 5-3 5c-6 10-9 17-8 22 0 4 2 8 5 11a37 37 0 0 0 14 6l-3 4-14 22-3 7-2-5c-4-9-12-20-25-37-19-25-24-33-30-44l-9-23-2-10c-1-12-2-16-7-26a189 189 0 0 0-37-50l-13-12-3-4c-2-1-6 0-7 1-5 4-1 11 16 25a152 152 0 0 1 37 56l3 12c1 11 2 14 5 22 6 17 13 28 32 52l21 29 14 26v6l-3 13-2 4c-3 0-7 3-11 6l-3 4-10 2c-29 8-45 13-60 21-16 8-29 18-57 43l-21 17c-9 7-17 11-27 15s-26 12-35 18l-13 12c-1 4 2 8 6 8l5-2a164 164 0 0 1 41-25c7-2 17-7 24-12 8-5 16-12 30-24a194 194 0 0 1 105-58l-1 3a538 538 0 0 0-23 38l-7 7-9 7a194 194 0 0 0-51 56l-7 19-8 20a285 285 0 0 1-46 64c-7 5-12 10-14 13-3 4-2 8 1 10 4 2 6 1 9-4l11-9 13-14a307 307 0 0 0 45-75 126 126 0 0 1 53-71c2 0 2-1-4 12a7530 7530 0 0 0-50 117 333 333 0 0 0-9 143c5 20 11 33 21 42 4 4 8 6 13 8h20c17-4 34-15 54-36 18-17 34-37 52-64l8-11 2 2c6 6 14 11 20 12h15c4 0 11-4 14-6l6-5 3-3 6 8c18 27 33 46 52 64 14 15 27 24 39 30 11 5 17 7 27 6 9 0 15-3 22-10 12-12 20-33 23-63a337 337 0 0 0-29-164l-27-58 13 11 14 20 13 25c19 37 23 42 53 69 21 19 31 29 38 40l6 7c4 1 7-2 7-6 0-2-3-8-9-16-5-7-20-22-35-35a156 156 0 0 1-49-64c-14-28-19-35-27-45-3-4-23-23-33-31-3-3-4-4-7-11a801 801 0 0 0-26-51l35 10c21 7 32 13 50 27l26 23c25 22 37 30 53 35 12 5 30 15 40 24 4 3 5 3 7 3 4 0 7-4 5-8-1-3-11-11-22-17-7-5-20-11-26-13-10-3-21-10-32-18l-15-13a510 510 0 0 0-37-32c-9-6-22-13-35-18a448 448 0 0 0-61-20l-10-10c-2-1-3-2-3-4-1-3 0-3 1-5a103 103 0 0 0 24-42c4-15 6-26 10-62l3-27a236 236 0 0 1 55-92l13-9c5-2 6-4 6-6s-2-4-4-5zm-99 257-1 1-1-1zm-158 2h-1l-1 1 1-1zm174 19v1l-2-1v-1zm-156 12 1 1zl-1-1zm2 3-2 1-1 1 1-1zm122 0-1 1v-1zm-112 10 1 1zl-2-1c1-1 1-1 2 1m-4 1-1 1v-1zm7 1c1 1 1 1 0 0l-1-1zm98-1-1 1q-1 1 0 0zs1 0 0 0m-96 4v-2c-1-1-1-1 0 0zm93-1-1 1v-1zm-104 8h-1c0 1-1 1 0 0zm114 0c1 1 1 1 0 0h-1zm-120 6-1 1-1 1 1-1zm128 2h-1l-1-1zm47 1c1 1 1 1 0 0l-1-1zm3 2c1 1 1 1 0 0h-1zm3 2h-1zm-19 2c1 1 1 1 0 0l-1-1zm-222 2-1 1-1-1zm226 1c1 1 1 1 0 0l-1-1zm-229 1-1 1-1 1 1-1zm232 1q0 1.5 0 0l-1-1zm2 2c1 1 1 1 0 0l-1-1zm3 2c1 1 1 1 0 0h-1zm3 3 1 1zl-1-1zm4 4 2 1zl-1-2zm5 4 2 2zl-2-2zm5 4 2 2-3-2-1-2zm-49 5q0 1.5 0 0v-1zm1 3v-1zm-160 1q0 1.5 0 0v-1zm160 4v-1s0-1 0 0zm-160 3-1-1 1-1zm162 20c-1 2-1 1-1-4l1-4zm-162 13-1-1c0-1 0-2 1-1zm160 6v-2zm-160 2c0 1 0 0 0 0v-1zm1 4h-1l1-1zm158 3v-1zm-158 3v-1s0-1 0 0zm158 2v-1zm-157 3h-1l1-1zm156 0c0 1 0 0 0 0v-1zm-156 3v-1zm156 1v-1s0-1 0 0zm-155 3h-1l1-1zm1 7v-1zm2 11q0 1.5 0 0v-1zm262 52h-1l1-1zm-383 1h-1l1-1zm-2 9q0 1.5 0 0v-1zm387 7v-1q0-1.5 0 0zm-388 0c0 1 0 0 0 0v-1zm-1 5v-1zm390 0v-1c-1 0 0 0 0 0zm-390 3v-1zm390 1v-1zm-391 5v-1s0-1 0 0zm392 1v-2zm-392 3v-1zm392 4q0 1.5 0 0v-1zm-393 4q0 1.5 0 0v-1zm235 1-1 1v-1zm159 5v-3zm-162-1s0 1 0 0l-1-1c1-1 1 0 1 1m-232 19v-1s0-1 0 0zm244-1c1 1 1 1 0 0h-1zm-244 3c0 1 0 0 0 0v-1zm394 4v-3zm-1 6v-1q0-1.5 0 0zm-393 3q0 1.5 0 0v-1zm393 4v-1q0-1.5 0 0zm-134 1q1.5 0 0 0l-1-1zm-122 0-1 1c-1 1-1 1 0 0zm-136 2q0 1.5 0 0v-1zm260 0c1 1 1 1 0 0h-1zm131 1v-1zm-257 0-1 1c-1 1-1 1 0 0zm128 2c1 1 1 1 0 0l-1-1zm-262 1c0 1 0 0 0 0v-1zm132 0-1 1v-1zm133 2c1 1 1 1 0 0l-1-1zm-135 0-1 1c-1 1-1 1 0 0zm-129 2q0 1.5 0 0v-1zm267 1 1 1-2-1v-1zm-141 0-1 1c-1 1-1 1 0 0zm-126 2q0 1.5 0 0v-1zm270 2 1 1-2-1v-1zm-147-1-1 2-1 1 1-2zm-3 4-1 2-2 1 2-2zm154 2 2 2zl-2-2zm-272 0-1-1s0-1 0 0zm114 3-2 2-2 2 2-2zm-7 8-4 3-4 4 4-4zm186 9 1 1-2-1-1-1zm-198 2-1 1-1 1 1-1zm202 2c1 1 1 1 0 0l-1-1zm80 2h-1zm-286 0-1 1-2 1 1-1zm209 0v1l-1-1zm-212 2-2 2h-1l1-1zm217 2q0 1.5 0 0l-1-1zm-220 1-1 1h-1zm-3 2h-1zm-2 1-1 1q0 1.5 0 0zm-66 2v1l-1-2zm356 0-3 3-3 2 3-3zm-355 2v1l-1-1zm7 7h-1v-1zm318 2h-1zs1 0 0 0m7 1h-3zm-310 3h-1z" data-name="shadow" style="fill:#424242"/><path d="M576 62c-4 1-11 6-16 10a197 197 0 0 0-65 139l-4 26a120 120 0 0 1-22 56l-3-5c-3-8-11-23-16-31l-5-7 6-2c12-4 15-7 14-16 0-6-1-9-6-18l-3-7 2-3c7-11 6-26-3-36-5-6-12-9-20-8h-4l-3-5c-3-6-7-10-9-12l-6-2c-4 0-5 1-9 4l-3 1-2-2c-1-1-3-3-5-3-7-4-13 0-19 12l-2 5h-4c-11-1-22 6-26 17-3 8-3 15 1 23l2 5-3 5c-6 10-9 17-8 22 0 4 2 8 5 11a37 37 0 0 0 14 6l-3 4-14 22-3 7-2-5c-4-9-12-20-25-37-19-25-24-33-30-44l-9-23-2-10c-1-12-2-16-7-26a189 189 0 0 0-37-50l-13-12-3-4c-2-1-6 0-7 1-5 4-1 11 16 25a152 152 0 0 1 37 56l3 12c1 11 2 14 5 22 6 17 13 28 32 52l21 29 14 26v6l-3 13-2 4c-3 0-7 3-11 6l-3 4-10 2c-29 8-45 13-60 21-16 8-29 18-57 43l-21 17c-9 7-17 11-27 15s-26 12-35 18l-13 12c-1 4 2 8 6 8l5-2a164 164 0 0 1 41-25c7-2 17-7 24-12 8-5 16-12 30-24a194 194 0 0 1 105-58l-1 3a538 538 0 0 0-23 38l-7 7-9 7a194 194 0 0 0-51 56l-7 19-8 20a285 285 0 0 1-46 64c-7 5-12 10-14 13-3 4-2 8 1 10 4 2 6 1 9-4l11-9 13-14a307 307 0 0 0 45-75 126 126 0 0 1 53-71c2 0 2-1-4 12a7530 7530 0 0 0-50 117 333 333 0 0 0-9 143c5 20 11 33 21 42 4 4 8 6 13 8h20c17-4 34-15 54-36 18-17 34-37 52-64l8-11 2 2c6 6 14 11 20 12h15c4 0 11-4 14-6l6-5 3-3 6 8c18 27 33 46 52 64 14 15 27 24 39 30 11 5 17 7 27 6 9 0 15-3 22-10 12-12 20-33 23-63a337 337 0 0 0-29-164l-27-58 13 11 14 20 13 25c19 37 23 42 53 69 21 19 31 29 38 40l6 7c4 1 7-2 7-6 0-2-3-8-9-16-5-7-20-22-35-35a156 156 0 0 1-49-64c-14-28-19-35-27-45-3-4-23-23-33-31-3-3-4-4-7-11a801 801 0 0 0-26-51l35 10c21 7 32 13 50 27l26 23c25 22 37 30 53 35 12 5 30 15 40 24 4 3 5 3 7 3 4 0 7-4 5-8-1-3-11-11-22-17-7-5-20-11-26-13-10-3-21-10-32-18l-15-13a510 510 0 0 0-37-32c-9-6-22-13-35-18a448 448 0 0 0-61-20l-10-10c-2-1-3-2-3-4-1-3 0-3 1-5a103 103 0 0 0 24-42c4-15 6-26 10-62l3-27a236 236 0 0 1 55-92l13-9c5-2 6-4 6-6s-2-4-4-5zm-99 257-1 1-1-1zm-158 2h-1l-1 1 1-1zm174 19v1l-2-1v-1zm-156 12 1 1-1-1-1-1zm2 3-2 1-1 1 1-1zm122 0-1 1v-1zm-112 10 1 1-1-1-2-1c1-1 1-1 2 1Zm-4 1-1 1v-1zm7 1c1 1 1 1 0 0l-1-1zm98-1-1 1q-1 1 0 0l1-1s1 0 0 0Zm-96 4v-2c-1-1-1-1 0 0zm93-1-1 1v-1zm-104 8h-1c0 1-1 1 0 0zm114 0c1 1 1 1 0 0h-1zm-120 6-1 1-1 1 1-1zm128 2h-1l-1-1zm47 1c1 1 1 1 0 0l-1-1zm3 2c1 1 1 1 0 0h-1zm3 2h-1zm-19 2c1 1 1 1 0 0l-1-1zm-222 2-1 1-1-1zm226 1c1 1 1 1 0 0l-1-1zm-229 1-1 1-1 1 1-1zm232 1q0 1.5 0 0l-1-1zm2 2c1 1 1 1 0 0l-1-1zm3 2c1 1 1 1 0 0h-1zm3 3 1 1-1-1-1-1zm4 4 2 1-2-1-1-2zm5 4 2 2-2-2-2-2zm5 4 2 2-3-2-1-2zm-49 5q0 1.5 0 0v-1zm1 3v-1zm-160 1q0 1.5 0 0v-1zm160 4v-1s0-1 0 0zm-160 3-1-1 1-1zm162 20c-1 2-1 1-1-4l1-4zm-162 13-1-1c0-1 0-2 1-1zm160 6v-2zm-160 2c0 1 0 0 0 0v-1zm1 4h-1l1-1zm158 3v-1zm-158 3v-1s0-1 0 0zm158 2v-1zm-157 3h-1l1-1zm156 0c0 1 0 0 0 0v-1zm-156 3v-1zm156 1v-1s0-1 0 0zm-155 3h-1l1-1zm1 7v-1zm2 11q0 1.5 0 0v-1zm262 52h-1l1-1zm-383 1h-1l1-1zm-2 9q0 1.5 0 0v-1zm387 7v-1q0-1.5 0 0zm-388 0c0 1 0 0 0 0v-1zm-1 5v-1zm390 0v-1c-1 0 0 0 0 0zm-390 3v-1zm390 1v-1zm-391 5v-1s0-1 0 0zm392 1v-2zm-392 3v-1zm392 4q0 1.5 0 0v-1zm-393 4q0 1.5 0 0v-1zm235 1-1 1v-1zm159 5v-3zm-162-1s0 1 0 0l-1-1c1-1 1 0 1 1Zm-232 19v-1s0-1 0 0zm244-1c1 1 1 1 0 0h-1zm-244 3c0 1 0 0 0 0v-1zm394 4v-3zm-1 6v-1q0-1.5 0 0zm-393 3q0 1.5 0 0v-1zm393 4v-1q0-1.5 0 0zm-134 1q1.5 0 0 0l-1-1zm-122 0-1 1c-1 1-1 1 0 0zm-136 2q0 1.5 0 0v-1zm260 0c1 1 1 1 0 0h-1zm131 1v-1zm-257 0-1 1c-1 1-1 1 0 0zm128 2c1 1 1 1 0 0l-1-1zm-262 1c0 1 0 0 0 0v-1zm132 0-1 1v-1zm133 2c1 1 1 1 0 0l-1-1zm-135 0-1 1c-1 1-1 1 0 0zm-129 2q0 1.5 0 0v-1zm267 1 1 1-2-1v-1zm-141 0-1 1c-1 1-1 1 0 0zm-126 2q0 1.5 0 0v-1zm270 2 1 1-2-1v-1zm-147-1-1 2-1 1 1-2zm-3 4-1 2-2 1 2-2zm154 2 2 2-2-2-2-2zm-272 0-1-1s0-1 0 0zm114 3-2 2-2 2 2-2zm169 7Zm-176 1-4 3-4 4 4-4zm186 9 1 1-2-1-1-1zm-198 2-1 1-1 1 1-1zm202 2c1 1 1 1 0 0l-1-1zm80 2h-1zm-286 0-1 1-2 1 1-1zm209 0v1l-1-1zm-212 2-2 2h-1l1-1zm217 2q0 1.5 0 0l-1-1zm-220 1-1 1h-1zm-3 2h-1zm-2 1-1 1q0 1.5 0 0zm-66 2v1l-1-2zm356 0-3 3-3 2 3-3zm-355 2v1l-1-1zm7 7h-1v-1zm318 2h-1 1s1 0 0 0Zm7 1h-3zm-310 3h-1z" data-name="gray" style="fill:#c8c8c8;stroke:#424242;stroke-miterlimit:10;stroke-width:2px"/></svg>